HIERARCHY
ROOT Hips
{
	OFFSET 0.000000 121.760803 0.000000
	CHANNELS 6 Xposition Yposition Zposition Xrotation Yrotation Zrotation 
	JOINT Spine
	{
		OFFSET 0.072000 7.257294 -0.789700
		CHANNELS 3 Xrotation Yrotation Zrotation
		JOINT Spine1
		{
			OFFSET 0.000000 12.508769 -0.658067
			CHANNELS 3 Xrotation Yrotation Zrotation
			JOINT Spine1_split
			{
				OFFSET 0.000000 12.508769 -0.658067
				CHANNELS 3 Xrotation Yrotation Zrotation
				JOINT Spine2
				{
					OFFSET 0.000000 12.508769 -0.658067
					CHANNELS 3 Xrotation Yrotation Zrotation
					JOINT Neck
					{
						OFFSET 0.000000 14.033295 7.520400
						CHANNELS 3 Xrotation Yrotation Zrotation
						JOINT Head
						{
							OFFSET 0.000000 8.198502 5.703100
							CHANNELS 3 Xrotation Yrotation Zrotation
							JOINT HeadTop_End
							{
								OFFSET 0.000000 17.760803 13.332701
								CHANNELS 3 Xrotation Yrotation Zrotation
								End Site
								{
									OFFSET 0.000000 0.000000 0.000000
								}
							}
						}
					}
					JOINT LeftShoulder
					{
						OFFSET 6.292450 5.785301 -0.669000
						CHANNELS 3 Xrotation Yrotation Zrotation
						JOINT LeftShoulder_split
						{
							OFFSET 6.292450 5.785301 -0.669000
							CHANNELS 3 Xrotation Yrotation Zrotation
							JOINT LeftArm
							{
								OFFSET 13.907140 -6.093903 1.965100
								CHANNELS 3 Xrotation Yrotation Zrotation
								JOINT LeftForeArm
								{
									OFFSET 34.140198 0.000000 0.000000
									CHANNELS 3 Xrotation Yrotation Zrotation
									JOINT LeftHand
									{
										OFFSET 40.960209 0.000000 0.000000
										CHANNELS 3 Xrotation Yrotation Zrotation
										JOINT LeftHandThumb1
										{
											OFFSET 10.006996 -7.170425 9.573125
											CHANNELS 3 Xrotation Yrotation Zrotation
											JOINT LeftHandThumb2
											{
												OFFSET 1.835007 -1.059448 1.059443
												CHANNELS 3 Xrotation Yrotation Zrotation
												JOINT LeftHandThumb3
												{
													OFFSET 2.112267 -1.219513 1.219518
													CHANNELS 3 Xrotation Yrotation Zrotation
													JOINT LeftHandThumb4
													{
														OFFSET 4.843811 -2.796570 2.796576
														CHANNELS 3 Xrotation Yrotation Zrotation
														End Site
														{
															OFFSET 0.000000 0.000000 0.000000
														}
													}
												}
											}
										}
										JOINT LeftHandIndex1
										{
											OFFSET 18.389847 -0.922348 4.596882
											CHANNELS 3 Xrotation Yrotation Zrotation
											JOINT LeftHandIndex2
											{
												OFFSET 4.711273 0.000000 0.000000
												CHANNELS 3 Xrotation Yrotation Zrotation
												JOINT LeftHandIndex3
												{
													OFFSET 2.886131 0.000000 0.000000
													CHANNELS 3 Xrotation Yrotation Zrotation
													JOINT LeftHandIndex4
													{
														OFFSET 6.145912 0.000000 0.000000
														CHANNELS 3 Xrotation Yrotation Zrotation
														End Site
														{
															OFFSET 0.000000 0.000000 0.000000
														}
													}
												}
											}
										}
										JOINT LeftHandMiddle1
										{
											OFFSET 18.013008 0.000000 0.000000
											CHANNELS 3 Xrotation Yrotation Zrotation
											JOINT LeftHandMiddle2
											{
												OFFSET 4.946693 0.000000 0.000000
												CHANNELS 3 Xrotation Yrotation Zrotation
												JOINT LeftHandMiddle3
												{
													OFFSET 3.342232 0.000000 0.000000
													CHANNELS 3 Xrotation Yrotation Zrotation
													JOINT LeftHandMiddle4
													{
														OFFSET 4.461754 0.000000 0.000000
														CHANNELS 3 Xrotation Yrotation Zrotation
														End Site
														{
															OFFSET 0.000000 0.000000 0.000000
														}
													}
												}
											}
										}
										JOINT LeftHandRing1
										{
											OFFSET 15.849892 -0.102921 -4.126150
											CHANNELS 3 Xrotation Yrotation Zrotation
											JOINT LeftHandRing2
											{
												OFFSET 3.527054 0.000000 0.000000
												CHANNELS 3 Xrotation Yrotation Zrotation
												JOINT LeftHandRing3
												{
													OFFSET 2.961098 0.000000 0.000000
													CHANNELS 3 Xrotation Yrotation Zrotation
													JOINT LeftHandRing4
													{
														OFFSET 4.927200 0.000000 0.000000
														CHANNELS 3 Xrotation Yrotation Zrotation
														End Site
														{
															OFFSET 0.000000 0.000000 0.000000
														}
													}
												}
											}
										}
										JOINT LeftHandPinky1
										{
											OFFSET 12.791824 -0.832031 -6.799156
											CHANNELS 3 Xrotation Yrotation Zrotation
											JOINT LeftHandPinky2
											{
												OFFSET 3.327133 0.000000 0.000000
												CHANNELS 3 Xrotation Yrotation Zrotation
												JOINT LeftHandPinky3
												{
													OFFSET 3.014900 0.000000 0.000000
													CHANNELS 3 Xrotation Yrotation Zrotation
													JOINT LeftHandPinky4
													{
														OFFSET 5.847786 0.000000 0.000000
														CHANNELS 3 Xrotation Yrotation Zrotation
														End Site
														{
															OFFSET 0.000000 0.000000 0.000000
														}
													}
												}
											}
										}
									}
								}
							}
						}
					}
					JOINT RightShoulder
					{
						OFFSET -6.292450 5.785301 -0.669000
						CHANNELS 3 Xrotation Yrotation Zrotation
						JOINT RightShoulder_split
						{
							OFFSET -6.292450 5.785301 -0.669000
							CHANNELS 3 Xrotation Yrotation Zrotation
							JOINT RightArm
							{
								OFFSET -13.907140 -6.093903 1.965100
								CHANNELS 3 Xrotation Yrotation Zrotation
								JOINT RightForeArm
								{
									OFFSET -34.140198 0.000000 0.000000
									CHANNELS 3 Xrotation Yrotation Zrotation
									JOINT RightHand
									{
										OFFSET -40.960209 0.000000 0.000000
										CHANNELS 3 Xrotation Yrotation Zrotation
										JOINT RightHandThumb1
										{
											OFFSET -10.007050 -7.170456 9.573117
											CHANNELS 3 Xrotation Yrotation Zrotation
											JOINT RightHandThumb2
											{
												OFFSET -1.835007 -1.059448 1.059443
												CHANNELS 3 Xrotation Yrotation Zrotation
												JOINT RightHandThumb3
												{
													OFFSET -2.112267 -1.219513 1.219518
													CHANNELS 3 Xrotation Yrotation Zrotation
													JOINT RightHandThumb4
													{
														OFFSET -4.843834 -2.796585 2.796590
														CHANNELS 3 Xrotation Yrotation Zrotation
														End Site
														{
															OFFSET 0.000000 0.000000 0.000000
														}
													}
												}
											}
										}
										JOINT RightHandIndex1
										{
											OFFSET -18.389870 -0.922424 4.596786
											CHANNELS 3 Xrotation Yrotation Zrotation
											JOINT RightHandIndex2
											{
												OFFSET -4.711273 0.000000 0.000000
												CHANNELS 3 Xrotation Yrotation Zrotation
												JOINT RightHandIndex3
												{
													OFFSET -2.886131 0.000000 0.000000
													CHANNELS 3 Xrotation Yrotation Zrotation
													JOINT RightHandIndex4
													{
														OFFSET -6.145920 0.000000 0.000000
														CHANNELS 3 Xrotation Yrotation Zrotation
														End Site
														{
															OFFSET 0.000000 0.000000 0.000000
														}
													}
												}
											}
										}
										JOINT RightHandMiddle1
										{
											OFFSET -18.013008 0.000000 0.000000
											CHANNELS 3 Xrotation Yrotation Zrotation
											JOINT RightHandMiddle2
											{
												OFFSET -4.946693 0.000000 0.000000
												CHANNELS 3 Xrotation Yrotation Zrotation
												JOINT RightHandMiddle3
												{
													OFFSET -3.342232 0.000000 0.000000
													CHANNELS 3 Xrotation Yrotation Zrotation
													JOINT RightHandMiddle4
													{
														OFFSET -4.461754 0.000000 0.000000
														CHANNELS 3 Xrotation Yrotation Zrotation
														End Site
														{
															OFFSET 0.000000 0.000000 0.000000
														}
													}
												}
											}
										}
										JOINT RightHandRing1
										{
											OFFSET -15.849876 -0.102936 -4.126237
											CHANNELS 3 Xrotation Yrotation Zrotation
											JOINT RightHandRing2
											{
												OFFSET -3.527054 0.000000 0.000000
												CHANNELS 3 Xrotation Yrotation Zrotation
												JOINT RightHandRing3
												{
													OFFSET -2.961098 0.000000 0.000000
													CHANNELS 3 Xrotation Yrotation Zrotation
													JOINT RightHandRing4
													{
														OFFSET -4.927200 0.000000 0.000000
														CHANNELS 3 Xrotation Yrotation Zrotation
														End Site
														{
															OFFSET 0.000000 0.000000 0.000000
														}
													}
												}
											}
										}
										JOINT RightHandPinky1
										{
											OFFSET -12.791786 -0.832077 -6.799222
											CHANNELS 3 Xrotation Yrotation Zrotation
											JOINT RightHandPinky2
											{
												OFFSET -3.327133 0.000000 0.000000
												CHANNELS 3 Xrotation Yrotation Zrotation
												JOINT RightHandPinky3
												{
													OFFSET -3.014900 0.000000 0.000000
													CHANNELS 3 Xrotation Yrotation Zrotation
													JOINT RightHandPinky4
													{
														OFFSET -5.847786 0.000000 0.000000
														CHANNELS 3 Xrotation Yrotation Zrotation
														End Site
														{
															OFFSET 0.000000 0.000000 0.000000
														}
													}
												}
											}
										}
									}
								}
							}
						}
					}
				}
			}
		}
	}
	JOINT LeftUpLeg
	{
		OFFSET 13.026900 -6.336304 -1.092800
		CHANNELS 3 Xrotation Yrotation Zrotation
		JOINT LeftLeg
		{
			OFFSET 0.524474 -46.096886 9.782700
			CHANNELS 3 Xrotation Yrotation Zrotation
			JOINT LeftFoot
			{
				OFFSET -0.524474 -53.427422 -12.948200
				CHANNELS 3 Xrotation Yrotation Zrotation
				JOINT LeftToeBase
				{
					OFFSET 0.192200 -14.009700 16.364100
					CHANNELS 3 Xrotation Yrotation Zrotation
					JOINT LeftToe_End
					{
						OFFSET -1.784700 -0.561700 9.474800
						CHANNELS 3 Xrotation Yrotation Zrotation
						End Site
						{
							OFFSET 0.000000 0.000000 0.000000
						}
					}
				}
			}
		}
	}
	JOINT RightUpLeg
	{
		OFFSET -12.883000 -6.336304 -1.092800
		CHANNELS 3 Xrotation Yrotation Zrotation
		JOINT RightLeg
		{
			OFFSET -0.524587 -46.096825 9.782800
			CHANNELS 3 Xrotation Yrotation Zrotation
			JOINT RightFoot
			{
				OFFSET 0.524587 -53.427383 -12.948300
				CHANNELS 3 Xrotation Yrotation Zrotation
				JOINT RightToeBase
				{
					OFFSET -0.192200 -14.009700 16.364100
					CHANNELS 3 Xrotation Yrotation Zrotation
					JOINT RightToe_End
					{
						OFFSET 1.784700 -0.561700 9.474800
						CHANNELS 3 Xrotation Yrotation Zrotation
						End Site
						{
							OFFSET 0.000000 0.000000 0.000000
						}
					}
				}
			}
		}
	}
}
MOTION
Frames: 4
Frame Time: 0.016667
-161.546295 40.826645 11.014321 5.128395 2.573015 -40.652651 26.917523 -3.492565 -12.650205 4.579547 1.205236 -2.831996 0.000000 0.000000 0.000000 4.490620 1.286411 -2.943286 -2.042154 1.139533 0.937733 -3.993382 18.457113 0.270712 0.000001 -0.000000 -0.000000 -1.373420 -20.809891 -17.189988 0.000000 0.000000 0.000000 -48.855315 35.869100 -5.133218 0.000047 -67.519555 0.000046 -8.667158 25.097323 88.863520 -18.674856 -12.715913 12.000665 5.781744 26.667885 7.360266 -10.020022 -14.017844 7.739294 0.000000 -0.000005 -0.000003 -0.114401 -6.949163 -4.727150 -0.000000 -0.000003 -0.000000 0.033143 -0.622958 6.090737 0.000000 0.000001 0.000000 0.098865 -2.457603 0.172479 0.069072 0.897929 -8.797570 0.006117 0.267939 -2.615536 -0.000001 0.000004 -0.000001 0.130748 1.053434 3.316422 0.099481 1.076176 -10.562552 0.143891 1.291752 -12.711533 0.000001 -0.000002 0.000001 -1.043237 17.733036 -1.993047 0.000107 0.035382 -0.345394 0.009301 0.330351 -3.225517 0.000000 -0.000003 -0.000000 0.401285 16.298366 -0.998257 0.000000 0.000000 0.000000 -40.005241 -32.703960 -10.775235 0.000006 46.721527 0.000009 -50.663878 -2.035160 11.091342 -36.432851 17.171401 -23.039152 7.506136 -18.062842 -3.520399 -7.056233 3.101000 -14.195935 0.000000 -0.000000 -0.000000 0.815367 4.038534 -1.787532 0.000001 -0.000007 0.000027 0.007210 0.259255 -3.184069 0.000001 -0.000001 -0.000002 0.053662 -1.961527 -1.170903 -0.000000 -0.001806 0.022148 0.073029 0.822384 -10.149055 -0.000000 -0.000003 -0.000003 0.143736 -11.067582 0.271832 -0.000001 0.000008 0.000007 0.119084 1.047490 -12.970662 0.000001 -0.000002 0.000002 -0.350054 -18.063105 -1.651673 0.001505 -0.118469 1.454589 0.105094 0.984790 -12.181848 0.000000 -0.000003 -0.000003 -114.682974 -3.242741 9.219978 27.457304 -0.443974 3.245354 25.350952 -14.826339 33.952976 -7.908878 0.000007 0.000007 0.000001 -0.000003 -0.000006 -107.643474 -12.501024 -28.454971 121.858621 9.134776 -0.006725 16.706831 29.502965 3.837042 -41.084175 0.000000 0.000007 -0.000000 -0.000000 -0.000000 
-160.829926 42.378891 9.039990 5.082422 2.504443 -41.538724 26.398095 -4.340073 -13.131120 4.544298 1.067065 -3.000532 0.000000 0.000000 0.000000 4.469507 1.152593 -3.102260 -2.049341 1.250610 0.923235 -3.430773 19.437303 0.140219 -0.000001 0.000000 0.000004 -0.738569 -20.006920 -16.433085 0.000000 0.000000 0.000000 -50.129251 35.122264 -5.603040 0.000047 -67.864268 0.000049 -7.308392 26.200083 89.911654 -18.673703 -12.714352 12.002645 5.779694 26.667104 7.363956 -10.020021 -14.017835 7.739298 0.000002 0.000002 0.000003 -0.114868 -6.948381 -4.729061 0.000001 -0.000004 -0.000000 0.033451 -0.625847 6.119074 0.000000 0.000000 0.000000 0.098905 -2.457264 0.173012 0.068626 0.895019 -8.768868 0.005852 0.262078 -2.558339 0.000000 -0.000000 0.000000 0.130717 1.054168 3.317228 0.098834 1.072690 -10.528037 0.141862 1.282745 -12.621327 -0.000001 -0.000002 -0.000001 -1.043704 17.733748 -1.992102 0.000107 0.035292 -0.344535 0.008960 0.324268 -3.165826 -0.000000 -0.000001 -0.000001 0.572093 17.177624 -1.647709 0.000000 0.000000 0.000000 -40.220686 -36.620544 -13.906596 0.000014 47.792845 -0.000013 -49.852656 -3.546398 10.728631 -36.512566 17.028157 -23.229344 7.528398 -18.244765 -3.533561 -7.056234 3.100993 -14.195937 -0.000000 -0.000001 0.000000 0.824674 4.106027 -1.666737 0.000002 0.000004 0.000104 0.007193 0.259130 -3.182516 0.000001 -0.000003 -0.000002 0.055117 -1.872145 -1.095913 0.000001 -0.001832 0.022637 0.072355 0.818615 -10.101957 -0.000000 -0.000000 -0.000001 0.147328 -10.931684 0.311336 0.000000 -0.000003 0.000005 0.116600 1.036663 -12.834188 -0.000003 0.000001 0.000003 -0.366979 -18.002623 -1.683535 0.001715 -0.126637 1.554746 0.101839 0.969612 -11.991070 0.000001 -0.000004 0.000002 -112.258585 -2.783552 9.191567 23.754408 -0.313827 3.555591 28.913051 -13.529312 32.516130 -8.731669 -0.000002 -0.000001 -0.000002 -0.000000 -0.000001 -105.920449 -15.003069 -27.336324 118.905725 7.924772 -0.410310 15.709514 29.694466 5.021415 -39.838748 0.000004 0.000005 -0.000001 0.000000 -0.000000 
-159.967560 44.037369 7.885527 5.669559 2.241807 -42.445022 25.846049 -5.013176 -13.389890 4.488218 0.843236 -3.085118 0.000000 0.000000 0.000000 4.437024 0.931097 -3.173845 -2.023565 1.363336 0.939932 -3.072403 20.274378 0.360047 -0.000001 -0.000001 -0.000002 -0.122286 -19.220888 -15.638249 0.000000 0.000000 0.000000 -51.499449 33.851640 -6.175588 0.000042 -67.064944 0.000041 -6.088720 26.491493 90.582358 -18.672552 -12.713399 12.004488 5.777696 26.666343 7.367543 -10.020021 -14.017835 7.739297 -0.000000 -0.000001 -0.000003 -0.115385 -6.947557 -4.731093 0.000001 -0.000010 -0.000005 0.033521 -0.626484 6.125287 0.000001 0.000002 0.000000 0.098950 -2.456934 0.173603 0.068520 0.894340 -8.762168 0.005792 0.260711 -2.544999 0.000000 -0.000000 0.000000 0.130687 1.054923 3.318095 0.098682 1.071874 -10.519950 0.141392 1.280647 -12.600271 -0.000002 0.000002 -0.000003 -1.044129 17.734284 -1.991123 0.000105 0.035240 -0.343834 0.008880 0.322785 -3.151488 0.000000 -0.000002 0.000001 0.605477 17.139986 -2.151165 0.000000 0.000000 0.000000 -40.578482 -39.839308 -15.876081 0.000008 48.762431 -0.000005 -48.772468 -4.582350 9.448619 -36.561975 16.901347 -23.361327 7.551343 -18.432406 -3.547084 -7.056233 3.100992 -14.195933 -0.000000 0.000002 -0.000000 0.833841 4.174735 -1.543923 -0.000004 0.000018 0.000003 0.007196 0.258991 -3.180918 0.000000 0.000000 -0.000004 0.056351 -1.781232 -1.019671 -0.000001 -0.001895 0.023242 0.071668 0.814769 -10.054036 0.000003 -0.000001 0.000000 0.150801 -10.793499 0.351483 0.000003 0.000000 0.000099 0.114093 1.025640 -12.695378 -0.000001 0.000002 -0.000000 -0.384131 -17.941100 -1.715906 0.001955 -0.134944 1.656620 0.098578 0.954168 -11.797072 -0.000002 0.000001 -0.000000 -112.965919 -2.882949 9.035092 26.141161 0.556034 3.063998 28.095309 -13.027642 33.211327 -9.310696 -0.000006 -0.000001 -0.000000 -0.000000 -0.000002 -103.581615 -17.139887 -26.065674 116.192610 7.588929 -0.539650 13.230310 29.903391 6.302586 -38.670103 -0.000004 -0.000004 0.000000 0.000001 0.000000 
-159.005615 45.918831 7.244936 6.499695 1.783608 -43.707490 25.384565 -5.535540 -13.382066 4.429980 0.562699 -3.087445 0.000000 0.000000 0.000000 4.399102 0.647813 -3.172078 -1.978531 1.469746 0.973266 -2.886833 20.911695 0.815763 0.000002 0.000000 0.000001 0.465869 -18.467175 -14.809595 0.000000 0.000000 0.000000 -53.117340 32.371040 -6.476306 0.000012 -65.498249 0.000001 -5.129251 26.194774 91.077219 -18.671408 -12.712492 12.006321 5.775801 26.665612 7.371027 -10.020022 -14.017835 7.739298 0.000001 0.000002 0.000002 -0.115930 -6.946745 -4.733158 -0.000001 0.000001 -0.000000 0.033434 -0.625694 6.117622 0.000000 0.000001 -0.000000 0.098997 -2.456611 0.174216 0.068642 0.895132 -8.769937 0.005861 0.262307 -2.560515 0.000000 -0.000000 0.000001 0.130657 1.055656 3.318957 0.098857 1.072808 -10.529236 0.141938 1.283086 -12.624701 -0.000001 0.000004 -0.000002 -1.044501 17.734526 -1.990185 0.000104 0.035174 -0.343286 0.008966 0.324363 -3.166980 0.000000 0.000001 -0.000001 0.420641 16.309597 -2.316457 0.000000 0.000000 0.000000 -40.918564 -42.271146 -17.103694 0.000009 49.709799 -0.000017 -47.434755 -5.281605 7.361211 -36.582159 16.789746 -23.436780 7.574895 -18.625463 -3.560985 -7.056233 3.100998 -14.195935 -0.000000 0.000003 -0.000001 0.842834 4.244619 -1.419233 -0.000002 -0.000016 0.000093 0.007182 0.258848 -3.179262 -0.000006 0.000002 -0.000000 0.057365 -1.688869 -0.942284 0.000003 -0.001965 0.023981 0.070978 0.810860 -10.005379 0.000000 0.000001 0.000001 0.154163 -10.653133 0.392188 0.000002 0.000007 0.000002 0.111590 1.014448 -12.554419 -0.000001 -0.000003 -0.000001 -0.401483 -17.878567 -1.748782 0.002199 -0.143369 1.760104 0.095322 0.938461 -11.599986 0.000002 0.000001 0.000001 -115.950439 -3.526714 8.875252 33.476270 1.675662 2.106889 23.868424 -13.126251 35.952965 -9.565973 -0.000024 -0.000005 -0.000000 -0.000000 -0.000001 -100.609766 -19.572664 -24.469976 113.353246 7.784138 -0.452219 10.061650 30.118433 7.397109 -37.575487 -0.000003 -0.000005 0.000000 -0.000001 -0.000000 
